# File exported by Houdini 19.5.303 (www.sidefx.com)
# 8 points
# 24 vertices
# 6 primitives
# Bounds: [-1, -1, -1] to [1, 1, 1]
g 
v 1 -1 1
v -1 -1 1
v 1 1 1
v -1 1 1
v -1 -1 -1
v 1 -1 -1
v -1 1 -1
v 1 1 -1
vt 0.315616488 0.333333343 0
vt 0.315616488 0.648949862 0
vt 0 0.648949862 0
vt 0 0.333333343 0
vt 0.648949862 0.666666687 0
vt 0.648949862 0.982283175 0
vt 0.333333343 0.982283175 0
vt 0.333333343 0.666666687 0
vt 0 0.315616488 0
vt 0 0 0
vt 0.315616488 0 0
vt 0.315616488 0.315616488 0
vt 0.648949862 0 0
vt 0.648949862 0.315616488 0
vt 0.333333343 0.315616488 0
vt 0.333333343 0 0
vt 0.315616488 0.666666687 0
vt 0.315616488 0.982283175 0
vt 0 0.982283175 0
vt 0 0.666666687 0
vt 0.648949862 0.333333343 0
vt 0.648949862 0.648949862 0
vt 0.333333343 0.648949862 0
vt 0.333333343 0.333333343 0
vn 0 0 1
vn -0 -0 1
vn -0 -0 1
vn -0 -0 1
vn 0 -0 -1
vn -0 -0 -1
vn -0 0 -1
vn -0 -0 -1
vn -0 1 -0
vn 0 1 0
vn -0 1 -0
vn -0 1 -0
vn -0 -1 -0
vn 0 -1 -0
vn -0 -1 -0
vn -0 -1 0
vn 1 -0 -0
vn 1 0 0
vn 1 -0 -0
vn 1 -0 -0
vn -1 -0 -0
vn -1 -0 0
vn -1 -0 -0
vn -1 0 -0
g 
f 1/1/1 3/2/2 4/3/3 2/4/4
f 5/5/5 7/6/6 8/7/7 6/8/8
f 7/9/9 4/10/10 3/11/11 8/12/12
f 6/13/13 1/14/14 2/15/15 5/16/16
f 6/17/17 8/18/18 3/19/19 1/20/20
f 2/21/21 4/22/22 7/23/23 5/24/24
